<svg width="161" height="165" viewBox="0 0 161 165" fill="none" xmlns="http://www.w3.org/2000/svg">
<path d="M159.873 95.8274C159.797 96.4975 159.58 97.1433 159.238 97.7213C158.951 98.2077 158.53 98.5982 158.028 98.8449C157.503 99.065 156.931 99.1376 156.37 99.0551C155.809 98.9725 155.28 98.7378 154.839 98.3756C154.417 98.0009 154.116 97.5063 153.972 96.9554C153.803 96.3054 153.77 95.6263 153.875 94.9623L154.107 93.2636L151.825 92.9431L152.09 90.9931L160.37 92.1569L159.873 95.8057L159.873 95.8274ZM39.0945 15.6036C39.0943 15.2414 39.2001 14.8874 39.3984 14.5866C39.5967 14.2858 39.8785 14.0519 40.2078 13.9148C40.5372 13.7777 40.8992 13.7435 41.2476 13.8167C41.596 13.8898 41.9151 14.067 42.1641 14.3255C42.4132 14.5841 42.5809 14.9123 42.6458 15.2683C42.7108 15.6243 42.6701 15.9921 42.5289 16.3245C42.3876 16.657 42.1524 16.9391 41.853 17.135C41.5536 17.3308 41.2038 17.4315 40.8481 17.4241C40.3799 17.4144 39.9341 17.2184 39.6063 16.8781C39.2785 16.5378 39.0948 16.0802 39.0945 15.6036ZM41.2936 151.818C41.2976 151.458 41.4065 151.107 41.6066 150.809C41.8066 150.512 42.0889 150.281 42.4176 150.147C42.7463 150.012 43.1067 149.98 43.4533 150.054C43.7999 150.129 44.117 150.306 44.3646 150.563C44.6122 150.821 44.7791 151.148 44.8443 151.502C44.9095 151.856 44.8699 152.222 44.7307 152.554C44.5915 152.886 44.3588 153.168 44.0621 153.365C43.7655 153.562 43.4181 153.665 43.0639 153.661C42.8288 153.658 42.5965 153.608 42.3803 153.514C42.164 153.42 41.9681 153.284 41.8037 153.113C41.6393 152.942 41.5097 152.739 41.4221 152.517C41.3346 152.295 41.2909 152.058 41.2936 151.818ZM155.836 77.2897C155.84 76.9292 155.949 76.578 156.149 76.2805C156.349 75.9829 156.632 75.7524 156.96 75.6181C157.289 75.4838 157.649 75.4517 157.996 75.5259C158.342 75.6 158.66 75.7772 158.907 76.0348C159.155 76.2925 159.322 76.6192 159.387 76.9735C159.452 77.3278 159.413 77.6938 159.273 78.0254C159.134 78.3569 158.901 78.639 158.605 78.836C158.308 79.033 157.961 79.1361 157.607 79.1322C157.132 79.1269 156.678 78.9298 156.346 78.5843C156.014 78.2388 155.831 77.7731 155.836 77.2897ZM155.451 95.0796C155.355 95.5502 155.422 96.0402 155.641 96.4662C155.76 96.6299 155.91 96.7678 156.082 96.8717C156.254 96.9757 156.444 97.0437 156.643 97.0718C156.841 97.0999 157.042 97.0874 157.236 97.0352C157.429 96.9829 157.611 96.8919 157.769 96.7675C158.1 96.4164 158.297 95.957 158.325 95.4717L158.543 93.8856L155.669 93.4805L155.451 95.0796ZM149.34 103.692C149.56 102.892 149.974 102.161 150.544 101.566C151.077 101.009 151.749 100.611 152.488 100.415C153.245 100.23 154.036 100.251 154.782 100.475C155.528 100.7 156.203 101.121 156.738 101.695C157.255 102.268 157.607 102.975 157.756 103.737C157.902 104.552 157.858 105.391 157.627 106.185C157.396 106.98 156.985 107.708 156.426 108.31C155.887 108.873 155.205 109.273 154.456 109.466C153.708 109.659 152.921 109.638 152.184 109.405C151.442 109.191 150.771 108.773 150.247 108.197C149.723 107.621 149.366 106.908 149.214 106.138C149.052 105.325 149.096 104.484 149.34 103.692ZM150.92 104.169C150.78 104.623 150.761 105.107 150.866 105.571C150.967 106.02 151.19 106.432 151.51 106.758C151.85 107.109 152.275 107.362 152.743 107.492C153.203 107.64 153.694 107.663 154.166 107.56C154.608 107.461 155.015 107.239 155.341 106.918C155.669 106.583 155.909 106.17 156.042 105.717C156.174 105.264 156.194 104.785 156.099 104.322C155.998 103.873 155.775 103.461 155.456 103.135C155.116 102.785 154.693 102.532 154.227 102.401C153.765 102.254 153.274 102.23 152.8 102.333C152.357 102.432 151.95 102.655 151.624 102.975C151.287 103.306 151.044 103.723 150.92 104.182L150.92 104.169ZM149.948 124.557L143.526 118.444L144.4 116.527L150.306 117.261L145.982 113.077L146.856 111.173L155.589 112.229L154.746 114.077L148.623 113.297L153.112 117.622L152.356 119.276L146.182 118.495L150.726 122.834L149.948 124.561L149.948 124.557ZM138.931 128.011L137.662 127.081L141.473 121.755L148.24 126.76L144.524 131.957L143.255 131.027L145.853 127.411L144.386 126.327L142.103 129.517L140.885 128.636L143.172 125.441L141.607 124.282L138.93 128.028L138.931 128.011ZM133.228 132.405L136.038 132.744L136.103 132.671L137.217 131.381L135.478 129.808L136.774 128.338L143.013 134.002L140.616 136.757C140.187 137.271 139.657 137.687 139.059 137.977C138.554 138.221 137.989 138.309 137.436 138.228C136.875 138.133 136.355 137.872 135.939 137.478C135.505 137.112 135.194 136.619 135.047 136.065C134.901 135.512 134.926 134.926 135.12 134.388L131.867 134.004L133.245 132.422L133.228 132.405ZM137.235 135.969C137.379 136.114 137.554 136.224 137.746 136.29C137.938 136.357 138.142 136.377 138.343 136.35C138.806 136.244 139.217 135.977 139.507 135.595L140.552 134.409L138.37 132.44L137.325 133.644C136.988 133.982 136.778 134.43 136.731 134.909C136.729 135.115 136.774 135.319 136.861 135.505C136.948 135.691 137.076 135.854 137.235 135.982L137.235 135.969ZM127.126 140.549L126.051 139.391L130.791 134.899L136.5 141.121L131.88 145.506L130.823 144.348L134.033 141.28L132.799 139.965L129.959 142.659L128.935 141.541L131.771 138.847L130.452 137.409L127.125 140.566L127.126 140.549ZM129.571 147.307L126.451 149.512C125.779 150.011 125.001 150.342 124.18 150.476C123.446 150.599 122.693 150.501 122.013 150.196C121.309 149.872 120.709 149.353 120.281 148.697C119.828 148.059 119.559 147.304 119.504 146.518C119.466 145.763 119.64 145.013 120.006 144.354C120.417 143.619 120.992 142.992 121.684 142.524L124.805 140.31L129.571 147.307ZM122.668 143.802C122.046 144.196 121.6 144.822 121.425 145.546C121.357 145.896 121.363 146.257 121.444 146.605C121.525 146.953 121.678 147.278 121.893 147.56C122.078 147.864 122.325 148.123 122.617 148.321C122.909 148.519 123.239 148.651 123.586 148.708C124.313 148.793 125.045 148.586 125.626 148.131L127.074 147.106L124.138 142.772L122.685 143.802L122.668 143.802ZM109.783 154.162C109.323 154.224 108.855 154.137 108.447 153.913C108.04 153.676 107.724 153.305 107.55 152.861C107.405 152.559 107.338 152.223 107.357 151.886C107.376 151.55 107.479 151.224 107.657 150.94C108.166 150.218 108.878 149.67 109.7 149.37L113.655 147.599L117.014 155.388L113.273 157.061C112.538 157.444 111.706 157.586 110.889 157.468C110.582 157.412 110.294 157.278 110.051 157.078C109.809 156.878 109.62 156.619 109.503 156.324C109.345 155.969 109.286 155.577 109.332 155.19C109.382 154.811 109.533 154.454 109.77 154.157L109.783 154.162ZM114.666 154.811L113.877 152.975L112.115 153.758C111.758 153.891 111.447 154.127 111.221 154.438C111.144 154.563 111.1 154.706 111.092 154.853C111.085 155.001 111.114 155.147 111.178 155.28C111.23 155.411 111.315 155.527 111.423 155.617C111.532 155.706 111.661 155.766 111.799 155.79C112.176 155.825 112.556 155.75 112.893 155.572L114.654 154.789L114.666 154.811ZM110.415 150.658C110.038 150.797 109.707 151.042 109.46 151.363C109.379 151.491 109.332 151.639 109.324 151.791C109.316 151.943 109.348 152.095 109.416 152.231C109.693 152.876 110.302 152.99 111.242 152.572L113.311 151.649L112.48 149.722L110.415 150.645L110.415 150.658ZM102.518 155.288L101.603 152.426L103.439 151.791L104.366 154.679L109.104 158.859L107.153 159.506L103.88 156.618L102.907 160.917L101.101 161.513L102.518 155.266L102.518 155.288ZM93.7909 161.332L96.4309 160.884L96.6862 162.467L89.5052 163.689L89.2456 162.106L91.8857 161.645L90.7674 154.836L92.6769 154.51L93.7909 161.332ZM87.6157 163.746L85.6998 163.873L85.1586 155.386L87.0873 155.26L87.6157 163.746ZM75.5607 155.388L75.3891 160.486L77.9929 156.374L78.8669 156.384L81.1741 160.572L81.3531 155.583L83.1645 155.65L82.8613 164.149L81.263 164.092L78.3382 158.691L75.0404 163.863L73.4549 163.802L73.7367 155.303L75.5607 155.388ZM66.653 162.75C65.9992 162.642 65.3763 162.391 64.8277 162.014C64.3629 161.698 64 161.251 63.7845 160.726C63.5785 160.185 63.5317 159.595 63.6499 159.028C63.7454 158.459 64.0017 157.931 64.3873 157.508C64.7751 157.098 65.2741 156.815 65.8204 156.695C66.4685 156.562 67.1366 156.57 67.7816 156.717L69.4367 157.035L69.8673 154.73L71.7649 155.099L70.2099 163.436L66.653 162.75ZM67.5978 158.295C67.1394 158.173 66.6538 158.217 66.2234 158.418C66.05 158.521 65.9019 158.663 65.7907 158.834C65.6794 159.004 65.6079 159.198 65.5815 159.401C65.5299 159.601 65.5251 159.81 65.5672 160.013C65.6094 160.215 65.6975 160.405 65.8244 160.566C66.1485 160.917 66.5839 161.14 67.0539 161.196L68.6026 161.496L69.1465 158.594L67.5978 158.295ZM60.94 161.545L59.0829 160.986L61.0112 154.359L56.991 153.147L57.4344 151.611L63.3116 153.386L60.94 161.545ZM27.6273 143.425C27.1202 142.984 26.7119 142.438 26.4299 141.823C26.1921 141.31 26.1066 140.738 26.1838 140.176C26.2894 139.609 26.5434 139.082 26.9189 138.65C27.2945 138.218 27.7776 137.897 28.3173 137.721C28.8576 137.574 29.4284 137.592 29.9583 137.774C30.5887 137.987 31.1665 138.335 31.6525 138.795L32.919 139.934L34.4479 138.175L35.8958 139.494L30.3333 145.868L27.6273 143.425ZM30.6788 140.087C30.3461 139.744 29.9071 139.529 29.4363 139.478C29.236 139.488 29.0396 139.538 28.8587 139.626C28.6778 139.713 28.5161 139.837 28.3832 139.99C28.2503 140.143 28.1488 140.321 28.0849 140.515C28.021 140.708 27.9959 140.913 28.011 141.116C28.1177 141.581 28.38 141.994 28.7528 142.283L29.9306 143.346L31.8568 141.137L30.679 140.074L30.6788 140.087ZM26.8387 130.335C27.374 130.959 27.7469 131.709 27.9231 132.517C28.0898 133.278 28.0471 134.07 27.7996 134.808C27.5353 135.551 27.0843 136.212 26.4913 136.723C25.8984 137.234 25.1843 137.578 24.4202 137.721C23.666 137.847 22.8925 137.759 22.1845 137.467C21.4334 137.147 20.7673 136.651 20.2407 136.019C19.7141 135.387 19.342 134.637 19.1549 133.831C18.9857 133.061 19.0296 132.259 19.2818 131.513C19.5339 130.767 19.9845 130.107 20.5832 129.606C21.1655 129.09 21.8769 128.748 22.6384 128.618C23.4 128.487 24.182 128.574 24.8978 128.869C25.656 129.183 26.3236 129.688 26.8387 130.335ZM25.5818 131.398C25.2799 131.039 24.8923 130.766 24.4565 130.604C24.0309 130.447 23.5712 130.412 23.1273 130.503C22.6567 130.61 22.2186 130.831 21.8505 131.149C21.4824 131.466 21.1952 131.869 21.0135 132.324C20.8507 132.754 20.8086 133.223 20.8919 133.676C20.9818 134.145 21.1901 134.581 21.4962 134.942C21.7944 135.308 22.1826 135.588 22.6214 135.753C23.046 135.913 23.5064 135.95 23.9505 135.859C24.4215 135.751 24.8599 135.529 25.2281 135.211C25.5962 134.893 25.8832 134.489 26.0643 134.033C26.226 133.604 26.2666 133.137 26.1816 132.685C26.0991 132.208 25.8903 131.763 25.5776 131.398L25.5818 131.398ZM9.17356 119.576L17.7251 117.423L18.8264 119.236L14.9886 123.876L20.7904 122.456L21.8877 124.239L16.2685 131.121L15.2091 129.373L19.1934 124.591L13.1481 126.052L12.2016 124.505L16.2079 119.663L10.1576 121.193L9.17332 119.598L9.17356 119.576ZM12.0421 108.519L13.4647 107.884L16.0625 113.932L8.40939 117.354L5.87374 111.467L7.29637 110.832L9.0673 114.931L10.7299 114.19L9.17109 110.57L10.5422 109.965L12.0968 113.58L13.8708 112.788L12.0417 108.549L12.0421 108.519ZM11.5137 101.178L9.68994 103.385L9.71447 103.48L10.1567 105.13L12.4021 104.508L12.9097 106.411L4.84312 108.665L3.89751 105.117C3.70718 104.471 3.65654 103.791 3.74907 103.123C3.82138 102.554 4.06329 102.02 4.44228 101.595C4.82127 101.169 5.31916 100.872 5.86901 100.743C6.40506 100.567 6.98128 100.565 7.51843 100.736C8.05559 100.908 8.52728 101.245 8.86865 101.7L10.9695 99.1195L11.514 101.157L11.5137 101.178ZM6.38099 102.636C6.18027 102.683 5.99277 102.776 5.83305 102.908C5.67334 103.04 5.5457 103.208 5.46008 103.398C5.29562 103.85 5.29013 104.345 5.44453 104.8L5.85373 106.35L8.66372 105.569L8.25452 104.02C8.16306 103.547 7.90933 103.122 7.53868 102.823C7.37095 102.709 7.17991 102.635 6.98003 102.607C6.78015 102.579 6.57666 102.598 6.38496 102.662L6.38099 102.636ZM8.0473 91.5615L9.58526 91.2921L10.6514 97.814L2.4196 99.2026L1.3813 92.8633L2.91916 92.6026L3.62071 97.0112L5.41064 96.7056L4.77182 92.7924L6.25843 92.5398L6.89725 96.453L8.80249 96.1312L8.0473 91.5615ZM1.11988 90.2911L0.877114 86.4215C0.805347 85.5781 0.928662 84.7293 1.23718 83.943C1.52353 83.2445 1.99895 82.6432 2.60803 82.2091C3.24122 81.7685 3.98205 81.5153 4.74806 81.4777C5.51878 81.4143 6.29135 81.5733 6.97721 81.9364C7.63888 82.2825 8.1893 82.8142 8.56342 83.4687C8.96823 84.2071 9.1985 85.0313 9.23599 85.8762L9.48317 89.7329L1.11988 90.2911ZM7.63499 86.0624C7.62632 85.3153 7.32767 84.6021 6.80423 84.0785C6.54556 83.838 6.23906 83.6569 5.90553 83.5476C5.572 83.4383 5.21925 83.4034 4.87121 83.4451C4.52 83.45 4.17384 83.5312 3.85595 83.6834C3.53805 83.8356 3.25575 84.0551 3.02798 84.3274C2.80238 84.6244 2.6367 84.9639 2.54048 85.3263C2.44426 85.6888 2.4194 86.0669 2.46732 86.4391L2.57961 88.2328L7.75116 87.8909L7.63461 86.0971L7.63499 86.0624ZM5.85779 69.4551C6.04601 69.0239 6.36342 68.6643 6.76458 68.4279C7.17776 68.2029 7.65218 68.1228 8.11448 68.1998C8.44461 68.232 8.76107 68.3499 9.03364 68.5421C9.30621 68.7343 9.52578 68.9945 9.67139 69.2977C10.0084 70.1218 10.0934 71.0302 9.91537 71.9045L9.32126 76.2639L1.04098 75.1045L1.60255 70.9877C1.6649 70.1491 1.98057 69.3507 2.50625 68.7018C2.71421 68.4654 2.97747 68.2862 3.27158 68.181C3.56569 68.0758 3.88113 68.0478 4.18861 68.0998C4.56642 68.1448 4.92386 68.2981 5.21933 68.5419C5.51479 68.7857 5.73612 69.1099 5.85755 69.4768L5.85779 69.4551ZM2.74917 73.3266L4.70323 73.6L4.96349 71.6629C5.04067 71.2847 5.00647 70.8918 4.86515 70.5334C4.80336 70.3996 4.7077 70.285 4.58799 70.2013C4.46828 70.1176 4.32883 70.0679 4.18396 70.0571C4.04236 70.0276 3.89557 70.037 3.75866 70.0842C3.62176 70.1315 3.49968 70.2151 3.40496 70.3263C3.17804 70.6341 3.0423 71.0015 3.01374 71.3852L2.74917 73.3266ZM8.45393 71.8101C8.53305 71.4094 8.50073 70.9942 8.36063 70.6112C8.29611 70.4707 8.19574 70.3503 8.06998 70.2627C7.94422 70.175 7.79766 70.1233 7.64557 70.1129C6.96156 70.0185 6.54844 70.4884 6.40622 71.5227L6.11188 73.8413L8.15959 74.1288L8.4705 71.8537L8.45393 71.8101ZM8.77414 62.5434L11.6529 63.2523L11.2053 65.1657L8.30527 64.4521L2.31471 66.3647L2.80576 64.3781L6.93079 63.0524L3.84829 59.9542L4.29545 58.0799L8.79498 62.587L8.77414 62.5434ZM8.37263 51.8407L7.36402 54.3598L5.90772 53.8011L8.65301 46.9352L10.1131 47.5373L9.10022 50.0563L15.3818 52.6562L14.6496 54.4796L8.3722 51.8798L8.37263 51.8407ZM9.63064 45.2882L10.5324 43.5622L17.916 47.5284L17.0438 49.2764L9.63064 45.2882ZM23.0052 39.2346L18.8064 36.4451L20.8895 40.843L20.4123 41.5842L15.7239 41.4193L19.8252 44.16L18.8274 45.7027L11.8438 41.0378L12.7117 39.676L18.7679 39.9124L16.1173 34.3929L16.9851 33.0397L23.9942 37.7135L23.0007 39.2562L23.0052 39.2346ZM21.5454 27.8388C21.9711 27.3218 22.5024 26.9056 23.1024 26.6192C23.6073 26.3744 24.172 26.287 24.7254 26.3681C25.2812 26.4765 25.7979 26.7353 26.2213 27.1173C26.6447 27.4992 26.9592 27.9902 27.1318 28.5387C27.2706 29.0888 27.2463 29.6684 27.0621 30.2046C26.8498 30.8457 26.5061 31.4336 26.0538 31.9294L24.9394 33.219L26.6619 34.7702L25.3664 36.2445L19.1271 30.594L21.5454 27.8388ZM24.824 30.9392C25.1638 30.6026 25.3757 30.1545 25.4222 29.6742C25.4126 29.4708 25.3631 29.2714 25.2766 29.0878C25.19 28.9042 25.0681 28.7401 24.9181 28.6054C24.7682 28.4706 24.5932 28.3678 24.4035 28.303C24.2138 28.2383 24.0132 28.213 23.8137 28.2285C23.3523 28.3345 22.9419 28.6018 22.6541 28.9839L21.6089 30.1832L23.7788 32.1429L24.824 30.9392ZM25.5918 23.6088L27.0052 22.266L31.6097 27.3038L34.6735 24.3952L35.7478 25.5702L31.2705 29.8216L25.5705 23.5998L25.5918 23.6088ZM51.4899 6.72242C52.1021 6.4679 52.7602 6.34799 53.421 6.37058C53.8398 6.40383 54.2469 6.52669 54.6158 6.73112C54.9846 6.93556 55.3069 7.21698 55.5615 7.55695C55.8162 7.89693 55.9974 8.28781 56.0933 8.70403C56.1893 9.12026 56.1979 9.55244 56.1184 9.97233C55.999 10.5282 55.7204 11.0356 55.3177 11.4304C54.839 11.896 54.2681 12.2522 53.6433 12.4751L52.0717 13.087L52.9003 15.2662L51.0932 15.9666L48.1156 8.02172L51.4985 6.7095L51.4899 6.72242ZM52.9815 11.0182C53.4369 10.8734 53.828 10.5706 54.0868 10.1625C54.1716 9.9775 54.219 9.77711 54.2263 9.57315C54.2335 9.3692 54.2004 9.16585 54.129 8.97519C54.0575 8.78454 53.9491 8.61044 53.8103 8.46328C53.6714 8.31611 53.5049 8.19886 53.3206 8.11849C52.8639 7.99504 52.379 8.03883 51.9506 8.24219L50.4775 8.81177L51.5129 11.5705L52.9817 11.0009L52.9815 11.0182ZM63.2045 11.9302C62.4197 12.1588 61.5913 12.184 60.7947 12.0033C60.0418 11.8337 59.3501 11.4546 58.7968 10.9082C58.2434 10.3618 57.8502 9.66959 57.661 8.90879C57.4394 8.15333 57.4299 7.34975 57.6334 6.5889C57.837 5.82805 58.2456 5.14024 58.813 4.60322C59.4175 4.04836 60.1416 3.64596 60.9269 3.42849C61.7122 3.21102 62.5367 3.18459 63.3338 3.35134C64.0875 3.52253 64.7799 3.90259 65.3345 4.4495C65.889 4.99642 66.2841 5.68886 66.476 6.45024C66.689 7.205 66.6926 8.00516 66.4863 8.76202C66.28 9.51889 65.8718 10.2029 65.307 10.7383C64.712 11.3057 63.986 11.7112 63.1961 11.917L63.2045 11.9302ZM62.7748 10.3109C63.2269 10.19 63.6407 9.95244 63.9763 9.62113C64.2981 9.29519 64.5241 8.88435 64.629 8.43485C64.7403 7.95648 64.7282 7.45702 64.5939 6.98491C64.4763 6.5089 64.2386 6.07243 63.9045 5.71864C63.5898 5.38641 63.1911 5.14919 62.7523 5.03317C62.2974 4.91988 61.8215 4.92806 61.3706 5.05691C60.9175 5.17772 60.5033 5.41697 60.169 5.75098C59.8474 6.07531 59.6213 6.48474 59.5163 6.93293C59.4008 7.41085 59.4129 7.91145 59.5514 8.38289C59.6689 8.86021 59.9065 9.29814 60.2408 9.65351C60.5557 9.98452 60.9545 10.2203 61.393 10.3346C61.8474 10.4522 62.3245 10.444 62.7748 10.3109ZM80.8216 0.876135L78.6363 9.53199L76.5626 9.66957L74.3609 4.04215L72.8332 9.91899L70.7723 10.0524L67.4915 1.76992L69.4927 1.63588L71.756 7.47663L73.3415 1.3791L75.1293 1.26438L77.4177 7.14881L78.9781 1.0076L80.8215 0.884817L80.8216 0.876135ZM89.0269 8.41028L88.8901 9.98421L82.4452 9.41363L83.1703 0.936895L89.4617 1.49709L89.3292 3.07105L84.9502 2.68397L84.7934 4.5224L88.6569 4.8647L88.5291 6.39097L84.6614 6.04864L84.4946 8.00847L89.0269 8.41028ZM95.6658 11.0879L94.518 8.47117L94.42 8.47009L92.7691 8.15231L92.317 10.4779L90.4151 10.114L91.9788 1.75503L95.5489 2.40655C96.2016 2.51812 96.8237 2.76908 97.3742 3.1429C97.8445 3.46035 98.2088 3.91608 98.4184 4.44946C98.628 4.98284 98.6731 5.56858 98.5477 6.12883C98.4561 6.69962 98.1977 7.22913 97.806 7.6483C97.414 8.05269 96.9119 8.3283 96.3646 8.43957L97.7037 11.4924L95.6657 11.0966L95.6658 11.0879ZM96.6246 5.75598C96.6736 5.55559 96.6771 5.34649 96.635 5.14453C96.593 4.94257 96.5064 4.753 96.3817 4.59014C96.0536 4.24318 95.6177 4.0222 95.1479 3.96451L93.5992 3.66525L93.0552 6.57572L94.604 6.875C95.0594 6.99701 95.5425 6.95323 95.9698 6.75125C96.144 6.64649 96.2928 6.5029 96.4047 6.33124C96.5166 6.15959 96.5889 5.96437 96.6161 5.76023L96.6246 5.75598ZM105.673 12.2231L105.23 13.7372L99.0256 11.8717L101.397 3.71266L107.453 5.53753L107.01 7.05161L102.803 5.78542L102.288 7.55479L106.011 8.67673L105.568 10.1431L101.85 9.02119L101.3 10.9117L105.66 12.223L105.673 12.2231ZM110.23 6.53615L113.675 8.16713C114.435 8.50808 115.107 9.0253 115.636 9.67752C116.108 10.2631 116.403 10.9745 116.488 11.7268C116.567 12.508 116.428 13.2963 116.087 14.0009C115.775 14.7192 115.272 15.3345 114.635 15.7772C114.014 16.1931 113.29 16.4199 112.547 16.4311C111.714 16.4396 110.892 16.2507 110.144 15.8793L106.704 14.2484L110.23 6.53615ZM110.728 14.3537C111.376 14.702 112.133 14.7789 112.836 14.5681C113.487 14.2998 114.015 13.79 114.312 13.1417C114.608 12.4934 114.653 11.7547 114.435 11.0747C114.14 10.3927 113.595 9.85441 112.917 9.57358L111.296 8.83082L109.112 13.611L110.711 14.3709L110.728 14.3537ZM126.014 20.0655C126.315 20.4232 126.497 20.8689 126.533 21.3385C126.558 21.8146 126.426 22.2855 126.156 22.6754C125.986 22.9659 125.746 23.207 125.458 23.3755C125.17 23.5441 124.844 23.6345 124.512 23.638C123.641 23.5907 122.804 23.2791 122.109 22.7434L118.498 20.3293L123.088 13.2192L126.5 15.5008C127.217 15.9174 127.789 16.5499 128.138 17.3114C128.258 17.6044 128.304 17.9235 128.272 18.2394C128.239 18.5552 128.129 18.8577 127.952 19.1191C127.749 19.4455 127.459 19.707 127.116 19.8736C126.773 20.0402 126.392 20.1052 126.014 20.0611L126.014 20.0655ZM123.894 15.537L122.814 17.2133L124.409 18.303C124.711 18.5371 125.075 18.6741 125.454 18.6965C125.597 18.6886 125.737 18.6466 125.861 18.5739C125.985 18.5011 126.091 18.3997 126.17 18.2777C126.249 18.1558 126.299 18.0167 126.315 17.8716C126.332 17.7265 126.315 17.5796 126.265 17.4425C126.091 17.1003 125.823 16.817 125.494 16.6267L123.89 15.55L123.894 15.537ZM122.788 21.4315C123.107 21.6809 123.488 21.8354 123.888 21.8777C124.039 21.8808 124.188 21.843 124.32 21.7682C124.452 21.6934 124.562 21.5843 124.639 21.452C125.02 20.8617 124.78 20.2818 123.925 19.7081L122.037 18.4459L120.905 20.2041L122.788 21.4662L122.788 21.4315ZM130.805 26.0037L128.84 28.2604L127.392 26.9424L129.374 24.6641L130.51 18.4184L132.067 19.8071L131.278 24.1384L135.411 22.8128L136.83 24.0958L130.839 26.0171L130.805 26.0037ZM140.417 30.4503L138.692 28.374L139.893 27.337L144.598 32.9922L143.397 34.0292L141.667 31.9528L136.501 36.4135L135.239 34.9109L140.405 30.4502L140.417 30.4503ZM145.634 34.5444L146.737 36.1624L139.861 41.0165L138.758 39.3984L145.634 34.5444ZM144.825 49.3914L149.193 46.8835L144.39 46.7565L143.972 45.9837L146.286 41.8082L141.995 44.2518L141.109 42.6405L148.404 38.4811L149.181 39.8916L146.18 45.253L152.216 45.4024L152.993 46.8128L145.698 50.9939L144.812 49.3826L144.825 49.3914ZM155.604 53.2694C155.855 53.8935 155.971 54.5653 155.944 55.2392C155.922 55.8069 155.736 56.3555 155.411 56.8174C155.06 57.2681 154.597 57.6144 154.069 57.8201C153.542 58.0258 152.97 58.0832 152.413 57.9863C151.868 57.8642 151.371 57.5791 150.985 57.1676C150.529 56.6805 150.178 56.1015 149.955 55.4679L149.355 53.8641L147.214 54.7084L146.522 52.8692L154.333 49.8266L155.621 53.2652L155.604 53.2694ZM151.383 54.7936C151.524 55.2573 151.822 55.6555 152.223 55.9184C152.4 56.0145 152.597 56.0684 152.798 56.0759C152.998 56.0834 153.198 56.0443 153.382 55.9616C153.578 55.9 153.757 55.7938 153.907 55.651C154.056 55.5083 154.171 55.3328 154.244 55.1379C154.363 54.6713 154.321 54.1771 154.123 53.739L153.56 52.2398L150.849 53.2948L151.412 54.794L151.383 54.7936ZM157.524 58.8676L158.049 60.7657L151.505 62.5767L152.602 66.6945L151.084 67.1117L149.479 61.096L157.541 58.8591L157.524 58.8676Z" fill="#8E6CEA"/>
</svg>
