<svg width="36" height="36" viewBox="0 0 36 36" fill="none" xmlns="http://www.w3.org/2000/svg">
<circle cx="18" cy="18" r="18" fill="#EFF2F9"/>
<path d="M13.157 13.1534C12.7559 13.5483 12.7559 14.1887 13.157 14.5836L16.6269 18L13.157 21.4165C12.7559 21.8114 12.7559 22.4517 13.157 22.8467C13.5582 23.2416 14.2085 23.2416 14.6096 22.8467L18.0795 19.4303L21.3885 22.6882C21.7896 23.0832 22.4399 23.0832 22.8411 22.6882C23.2422 22.2933 23.2422 21.6529 22.8411 21.258L19.5321 18L22.8411 14.7421C23.2422 14.3471 23.2422 13.7068 22.8411 13.3119C22.4399 12.9169 21.7896 12.9169 21.3885 13.3119L18.0795 16.5698L14.6096 13.1534C14.2085 12.7584 13.5582 12.7584 13.157 13.1534Z" fill="#151515"/>
</svg>
